<mxfile host="app.diagrams.net" modified="2023-04-05T11:41:39.569Z" agent="5.0 (Windows NT 10.0; Win64; x64) AppleWebKit/537.36 (KHTML, like Gecko) Chrome/110.0.0.0 Safari/537.36 OPR/96.0.0.0" etag="fB5GbLKt0w4X4y7rj449" version="20.8.23" type="github">
  <diagram id="C5RBs43oDa-KdzZeNtuy" name="Page-1">
    <mxGraphModel dx="1393" dy="797" grid="1" gridSize="10" guides="1" tooltips="1" connect="1" arrows="1" fold="1" page="1" pageScale="1" pageWidth="827" pageHeight="1169" math="0" shadow="0">
      <root>
        <mxCell id="WIyWlLk6GJQsqaUBKTNV-0" />
        <mxCell id="WIyWlLk6GJQsqaUBKTNV-1" parent="WIyWlLk6GJQsqaUBKTNV-0" />
        <mxCell id="VUgPaIqFWO7mGs2cKvjk-0" value="START" style="ellipse;whiteSpace=wrap;html=1;" vertex="1" parent="WIyWlLk6GJQsqaUBKTNV-1">
          <mxGeometry x="320" y="100" width="120" height="80" as="geometry" />
        </mxCell>
        <mxCell id="VUgPaIqFWO7mGs2cKvjk-1" value="pobierz a i b" style="rounded=0;whiteSpace=wrap;html=1;" vertex="1" parent="WIyWlLk6GJQsqaUBKTNV-1">
          <mxGeometry x="320" y="260" width="120" height="60" as="geometry" />
        </mxCell>
        <mxCell id="VUgPaIqFWO7mGs2cKvjk-13" style="edgeStyle=orthogonalEdgeStyle;rounded=0;orthogonalLoop=1;jettySize=auto;html=1;" edge="1" parent="WIyWlLk6GJQsqaUBKTNV-1" source="VUgPaIqFWO7mGs2cKvjk-2" target="VUgPaIqFWO7mGs2cKvjk-3">
          <mxGeometry relative="1" as="geometry" />
        </mxCell>
        <mxCell id="VUgPaIqFWO7mGs2cKvjk-2" value="b=0" style="rhombus;whiteSpace=wrap;html=1;" vertex="1" parent="WIyWlLk6GJQsqaUBKTNV-1">
          <mxGeometry x="340" y="410" width="80" height="80" as="geometry" />
        </mxCell>
        <mxCell id="VUgPaIqFWO7mGs2cKvjk-3" value="a+b" style="rounded=0;whiteSpace=wrap;html=1;" vertex="1" parent="WIyWlLk6GJQsqaUBKTNV-1">
          <mxGeometry x="100" y="420" width="120" height="60" as="geometry" />
        </mxCell>
        <mxCell id="VUgPaIqFWO7mGs2cKvjk-4" value="nie da sie dzielic przez 0" style="whiteSpace=wrap;html=1;" vertex="1" parent="WIyWlLk6GJQsqaUBKTNV-1">
          <mxGeometry x="570" y="420" width="120" height="60" as="geometry" />
        </mxCell>
        <mxCell id="VUgPaIqFWO7mGs2cKvjk-5" value="STOP" style="ellipse;whiteSpace=wrap;html=1;" vertex="1" parent="WIyWlLk6GJQsqaUBKTNV-1">
          <mxGeometry x="320" y="630" width="120" height="80" as="geometry" />
        </mxCell>
        <mxCell id="VUgPaIqFWO7mGs2cKvjk-6" value="nie" style="text;html=1;align=center;verticalAlign=middle;resizable=0;points=[];autosize=1;strokeColor=none;fillColor=none;" vertex="1" parent="WIyWlLk6GJQsqaUBKTNV-1">
          <mxGeometry x="260" y="375" width="40" height="30" as="geometry" />
        </mxCell>
        <mxCell id="VUgPaIqFWO7mGs2cKvjk-7" value="tak&lt;br&gt;" style="text;html=1;align=center;verticalAlign=middle;resizable=0;points=[];autosize=1;strokeColor=none;fillColor=none;" vertex="1" parent="WIyWlLk6GJQsqaUBKTNV-1">
          <mxGeometry x="480" y="375" width="40" height="30" as="geometry" />
        </mxCell>
        <mxCell id="VUgPaIqFWO7mGs2cKvjk-8" value="" style="endArrow=classic;html=1;rounded=0;exitX=0.5;exitY=1;exitDx=0;exitDy=0;" edge="1" parent="WIyWlLk6GJQsqaUBKTNV-1" source="VUgPaIqFWO7mGs2cKvjk-0" target="VUgPaIqFWO7mGs2cKvjk-1">
          <mxGeometry width="50" height="50" relative="1" as="geometry">
            <mxPoint x="390" y="410" as="sourcePoint" />
            <mxPoint x="440" y="360" as="targetPoint" />
          </mxGeometry>
        </mxCell>
        <mxCell id="VUgPaIqFWO7mGs2cKvjk-9" value="" style="endArrow=classic;html=1;rounded=0;entryX=0.5;entryY=0;entryDx=0;entryDy=0;" edge="1" parent="WIyWlLk6GJQsqaUBKTNV-1" target="VUgPaIqFWO7mGs2cKvjk-2">
          <mxGeometry width="50" height="50" relative="1" as="geometry">
            <mxPoint x="380" y="320" as="sourcePoint" />
            <mxPoint x="430" y="270" as="targetPoint" />
          </mxGeometry>
        </mxCell>
        <mxCell id="VUgPaIqFWO7mGs2cKvjk-10" value="" style="endArrow=classic;html=1;rounded=0;entryX=0;entryY=0.5;entryDx=0;entryDy=0;" edge="1" parent="WIyWlLk6GJQsqaUBKTNV-1" source="VUgPaIqFWO7mGs2cKvjk-2" target="VUgPaIqFWO7mGs2cKvjk-4">
          <mxGeometry width="50" height="50" relative="1" as="geometry">
            <mxPoint x="390" y="410" as="sourcePoint" />
            <mxPoint x="440" y="360" as="targetPoint" />
          </mxGeometry>
        </mxCell>
        <mxCell id="VUgPaIqFWO7mGs2cKvjk-17" value="" style="endArrow=classic;html=1;rounded=0;exitX=0.567;exitY=1;exitDx=0;exitDy=0;exitPerimeter=0;entryX=1;entryY=0.5;entryDx=0;entryDy=0;" edge="1" parent="WIyWlLk6GJQsqaUBKTNV-1" source="VUgPaIqFWO7mGs2cKvjk-4" target="VUgPaIqFWO7mGs2cKvjk-5">
          <mxGeometry width="50" height="50" relative="1" as="geometry">
            <mxPoint x="380" y="630" as="sourcePoint" />
            <mxPoint x="430" y="580" as="targetPoint" />
            <Array as="points">
              <mxPoint x="638" y="670" />
            </Array>
          </mxGeometry>
        </mxCell>
        <mxCell id="VUgPaIqFWO7mGs2cKvjk-18" value="" style="endArrow=classic;html=1;rounded=0;entryX=0;entryY=0.5;entryDx=0;entryDy=0;" edge="1" parent="WIyWlLk6GJQsqaUBKTNV-1" target="VUgPaIqFWO7mGs2cKvjk-5">
          <mxGeometry width="50" height="50" relative="1" as="geometry">
            <mxPoint x="160" y="480" as="sourcePoint" />
            <mxPoint x="310" y="670" as="targetPoint" />
            <Array as="points">
              <mxPoint x="160" y="670" />
            </Array>
          </mxGeometry>
        </mxCell>
      </root>
    </mxGraphModel>
  </diagram>
</mxfile>
